<?xml version="1.0" encoding="iso-8859-1"?>
<!-- Generator: Adobe Illustrator 19.0.0, SVG Export Plug-In . SVG Version: 6.00 Build 0)  -->
<svg version="1.1" id="Layer_1" xmlns="http://www.w3.org/2000/svg" xmlns:xlink="http://www.w3.org/1999/xlink" x="0px" y="0px"
	 viewBox="0 0 512 512" style="enable-background:new 0 0 512 512;" xml:space="preserve">
<g>
	<g>
		<path d="M274.791,436.015L262.966,140.3l-34.717-57.862V0H123.522v82.438L88.805,140.3L76.991,435.665L75.46,512h200.851
			L274.791,436.015z M158.431,34.909h34.909v34.909h-34.909V34.909z M150.86,104.727h50.054l20.945,34.909h-91.945L150.86,104.727z
			 M122.373,174.545h107.025l9.775,244.364H112.599L122.373,174.545z M111.076,477.091l0.465-23.273h128.691l0.465,23.273H111.076z"
			/>
	</g>
</g>
<g>
	<g>
		<rect x="158.43" y="238.545" width="34.909" height="116.364"/>
	</g>
</g>
<g>
	<g>
		<path d="M360.904,0h-17.455v23.273h-58.182v151.273h58.182v290.909c0,25.665,20.88,46.545,46.545,46.545
			s46.545-20.88,46.545-46.545V75.636C436.54,33.93,402.611,0,360.904,0z M343.449,139.636h-23.273V58.182h23.273V139.636z
			 M401.631,465.455c0,6.416-5.22,11.636-11.636,11.636s-11.636-5.22-11.636-11.636V38.842
			c13.748,6.548,23.273,20.579,23.273,36.794V465.455z"/>
	</g>
</g>
<g>
</g>
<g>
</g>
<g>
</g>
<g>
</g>
<g>
</g>
<g>
</g>
<g>
</g>
<g>
</g>
<g>
</g>
<g>
</g>
<g>
</g>
<g>
</g>
<g>
</g>
<g>
</g>
<g>
</g>
</svg>
